<svg width="16" height="16" viewBox="0 0 16 16" fill="none" xmlns="http://www.w3.org/2000/svg">
<g clip-path="url(#clip0_84_29)">
<mask id="mask0_84_29" style="mask-type:luminance" maskUnits="userSpaceOnUse" x="0" y="0" width="16" height="16">
<path d="M0 0H16V16H0V0Z" fill="white"/>
</mask>
<g mask="url(#mask0_84_29)">
<path fill-rule="evenodd" clip-rule="evenodd" d="M15.73 11.527C15.7083 11.7245 15.6153 11.9073 15.4683 12.041C15.3214 12.1747 15.1306 12.2501 14.932 12.253H0.805C0.697442 12.2512 0.591298 12.2282 0.492628 12.1854C0.393959 12.1425 0.304698 12.0807 0.229944 12.0033C0.15519 11.926 0.0964068 11.8346 0.0569524 11.7346C0.017498 11.6345 -0.00185467 11.5276 -3.75963e-07 11.42V4.74705C-3.75963e-07 4.33105 0.294 3.98705 0.679 3.92505H15.058C15.2321 3.95584 15.3916 4.04209 15.5127 4.17094C15.6339 4.2998 15.7101 4.46435 15.73 4.64005V11.527ZM1.805 5.56905V10.617H3.07V5.56905H1.805ZM5.77 5.56905L5.477 7.92705L5.295 6.64505C5.24976 6.28569 5.19942 5.92698 5.144 5.56905H3.503V10.617H4.61L4.614 7.28405L5.081 10.617H5.871L6.313 7.20905L6.317 10.617H7.422V5.56905H5.77ZM9.498 6.61905C9.512 6.68305 9.519 6.82905 9.519 7.05805V9.01505C9.519 9.35005 9.499 9.55605 9.456 9.63205C9.414 9.70805 9.302 9.74605 9.12 9.74605V6.43205C9.258 6.43205 9.352 6.44705 9.402 6.47705C9.42709 6.49264 9.4486 6.51334 9.46515 6.53781C9.48169 6.56228 9.49288 6.58996 9.498 6.61905ZM10.07 10.566C10.2094 10.5371 10.3397 10.475 10.45 10.385C10.5571 10.2909 10.6322 10.1658 10.665 10.027C10.706 9.87405 10.731 9.57205 10.731 9.11905V7.34605C10.731 6.86905 10.713 6.54905 10.685 6.38605C10.6562 6.22165 10.5833 6.06817 10.474 5.94205C10.3428 5.7985 10.1707 5.69868 9.981 5.65605C9.765 5.59805 9.413 5.56905 8.8 5.56905H7.856V10.617H9.389C9.692 10.617 9.919 10.599 10.069 10.565L10.07 10.566ZM12.773 9.85405C12.749 9.91905 12.647 9.95105 12.57 9.95105C12.494 9.95105 12.444 9.92005 12.419 9.85805C12.393 9.79605 12.381 9.65405 12.381 9.43305V8.09805C12.381 7.86805 12.391 7.72505 12.414 7.66805C12.437 7.61105 12.486 7.58205 12.561 7.58205C12.638 7.58205 12.741 7.61505 12.768 7.68005C12.794 7.74505 12.808 7.88505 12.808 8.09805V9.39205C12.808 9.63605 12.796 9.79005 12.773 9.85405ZM11.162 10.617H12.302L12.38 10.295C12.483 10.425 12.597 10.521 12.72 10.585C12.845 10.65 13.03 10.683 13.174 10.683C13.374 10.683 13.547 10.628 13.693 10.519C13.827 10.4265 13.9248 10.2905 13.97 10.134C14.009 9.98605 14.029 9.76005 14.029 9.45805V8.04005C14.029 7.73605 14.022 7.53705 14.009 7.44305C13.9918 7.34018 13.9518 7.24246 13.892 7.15705C13.8223 7.05599 13.7247 6.97744 13.611 6.93105C13.4729 6.87373 13.3245 6.8458 13.175 6.84905C13.029 6.84905 12.843 6.87905 12.718 6.93905C12.588 7.00405 12.473 7.09605 12.381 7.20905V5.57005H11.161V10.618L11.162 10.617Z" fill="black"/>
</g>
</g>
<defs>
<clipPath id="clip0_84_29">
<rect width="16" height="16" fill="white"/>
</clipPath>
</defs>
</svg>
