<svg width="20" height="20" viewBox="0 0 20 20" fill="none" xmlns="http://www.w3.org/2000/svg">
<g clip-path="url(#clip0_84_20)">
<mask id="mask0_84_20" style="mask-type:luminance" maskUnits="userSpaceOnUse" x="0" y="0" width="20" height="20">
<path d="M0 0H20V20H0V0Z" fill="white"/>
</mask>
<g mask="url(#mask0_84_20)">
<path d="M20 11.294L10.763 10.676L19.223 14.056C19.6147 13.178 19.8765 12.2475 20 11.294Z" fill="#020202"/>
<path d="M18.103 15.964C17.167 17.2185 15.9506 18.2369 14.551 18.9376C13.1513 19.6384 11.6073 20.0022 10.042 20C4.496 20 0 15.523 0 10C0 4.47701 4.496 9.21991e-06 10.042 9.21991e-06C11.6101 -0.00211576 13.157 0.363106 14.5585 1.06641C15.9601 1.76971 17.1774 2.79154 18.113 4.05001L9.724 8.52201L15.123 3.00001H12.13L8.455 8.08001V3.00001H6.025V17H8.455V11.928L12.13 17H15.123L9.865 11.652L18.103 15.964Z" fill="#020202"/>
<path d="M19.223 5.94409L10.823 9.30009L20 8.70509C19.8765 7.75191 19.6147 6.82181 19.223 5.94409Z" fill="#020202"/>
</g>
</g>
<defs>
<clipPath id="clip0_84_20">
<rect width="20" height="20" fill="white"/>
</clipPath>
</defs>
</svg>
